<svg width="104" height="80" viewBox="0 0 104 80" fill="none" xmlns="http://www.w3.org/2000/svg">
<path d="M3.03673 76.0406C11.07 76.0406 18.4329 73.0852 25.1251 67.1744C31.8173 61.2636 35.1568 54.4838 35.1436 46.8349C35.1436 43.3262 34.3904 41.5718 32.8842 41.5718C30.9112 41.7965 28.9968 42.3757 27.2358 43.2806C25.3187 44.2439 23.2274 44.8246 21.082 44.9894C15.7242 44.9894 10.8719 42.9714 6.5249 38.9354C4.41661 37.0373 2.74421 34.7172 1.61968 32.1306C0.49515 29.5439 -0.0555784 26.7504 0.00442594 23.937C0.00442594 17.0954 2.09535 11.3961 6.27716 6.83931C10.459 2.28253 15.896 0.00413408 22.5882 0.00413408C26.4836 -0.0663556 30.3414 0.76546 33.8509 2.43264C37.3604 4.09981 40.4235 6.55577 42.7937 9.6027C48.0788 16.0082 50.7213 23.6832 50.7213 32.6275C50.8146 38.825 49.6404 44.9775 47.2688 50.7183C44.8972 56.459 41.3768 61.6704 36.9174 66.0417C32.6419 70.5249 27.4648 74.0804 21.7164 76.4813C15.9681 78.8822 9.77492 80.0757 3.53221 79.9855L3.03673 76.0406ZM56.3004 76.0406C64.3337 76.0406 71.6965 73.0852 78.3887 67.1744C85.0809 61.2636 88.427 54.4838 88.427 46.8349C88.427 43.3262 87.6739 41.5718 86.1676 41.5718C84.1947 41.7967 82.2803 42.3759 80.5192 43.2806C78.6022 44.2442 76.5109 44.8249 74.3654 44.9894C68.8692 45.0054 63.5897 42.8782 59.6795 39.0721C57.5803 37.146 55.9231 34.8001 54.8191 32.1915C53.715 29.5829 53.1896 26.7718 53.278 23.9468C53.278 17.1051 55.3689 11.4059 59.5507 6.84909C63.7325 2.2923 69.1696 0.0139082 75.8618 0.0139082C79.7572 -0.0565815 83.6149 0.775234 87.1244 2.44241C90.6339 4.10958 93.6971 6.56554 96.0672 9.61247C101.352 16.018 103.995 23.6929 103.995 32.6372C104.088 38.8347 102.914 44.9873 100.542 50.728C98.1708 56.4688 94.6503 61.6802 90.1909 66.0515C85.9154 70.5347 80.7383 74.0902 74.99 76.4911C69.2417 78.8919 63.0485 80.0854 56.8058 79.9953L56.3004 76.0406Z" fill="#101111"/>
</svg>
