<svg width="109" height="82" viewBox="0 0 109 82" fill="none" xmlns="http://www.w3.org/2000/svg">
<style>
    path { fill: #000000; }
    @media (prefers-color-scheme: dark) {
      path { fill: #ffffff; }
    }
</style>
<path d="M3.06446 77.8742C11.1711 77.8742 18.6012 74.8475 25.3545 68.7942C32.1078 62.7409 35.4778 55.7976 35.4645 47.9643C35.4645 44.3709 34.7045 42.5742 33.1845 42.5742C31.1935 42.8044 29.2616 43.3975 27.4845 44.3242C25.5499 45.3108 23.4395 45.9055 21.2745 46.0742C15.8678 46.0742 10.9712 44.0076 6.58448 39.8742C4.45694 37.9304 2.76927 35.5544 1.63447 32.9054C0.499671 30.2563 -0.0560859 27.3955 0.00446636 24.5142C0.00446636 17.5076 2.11448 11.6709 6.33448 7.00423C10.5545 2.33757 16.0412 0.00423377 22.7945 0.00423377C26.7255 -0.0679557 30.6184 0.783918 34.16 2.49129C37.7015 4.19867 40.7926 6.71385 43.1845 9.83425C48.5178 16.3943 51.1845 24.2543 51.1845 33.4143C51.2786 39.7612 50.0937 46.0621 47.7005 51.9412C45.3072 57.8204 41.7546 63.1575 37.2545 67.6342C32.94 72.2255 27.7156 75.8668 21.9147 78.3255C16.1139 80.7843 9.86417 82.0066 3.56446 81.9143L3.06446 77.8742ZM60.8145 77.8742C68.9211 77.8742 76.3512 74.8475 83.1045 68.7942C89.8578 62.7409 93.2345 55.7976 93.2345 47.9643C93.2345 44.3709 92.4745 42.5742 90.9545 42.5742C88.9636 42.8046 87.0317 43.3977 85.2545 44.3242C83.32 45.311 81.2096 45.9058 79.0445 46.0742C73.4981 46.0906 68.1704 43.9121 64.2245 40.0142C62.1061 38.0418 60.4338 35.6393 59.3197 32.9677C58.2055 30.2962 57.6753 27.4174 57.7645 24.5243C57.7645 17.5176 59.8745 11.6809 64.0945 7.01424C68.3145 2.34758 73.8012 0.0142435 80.5545 0.0142435C84.4855 -0.0579459 88.3784 0.793928 91.92 2.5013C95.4615 4.20868 98.5526 6.72386 100.944 9.84426C106.278 16.4043 108.944 24.2642 108.944 33.4242C109.039 39.7711 107.854 46.0721 105.46 51.9513C103.067 57.8304 99.5146 63.1675 95.0145 67.6442C90.7 72.2355 85.4756 75.8768 79.6748 78.3355C73.8739 80.7943 67.6242 82.0165 61.3245 81.9242L60.8145 77.8742Z" fill="white"/>
</svg>
